# xmcd
#
# Track frame offsets:
# 150
# 16712
# 28770
# 47897
# 63617
# 80425
# 96900
# 109237
# 129770
# 143057
# 161370
# 177507
#
# Disc length: 2611 seconds
#
#
# Revision: 0
# Processed by: cddbd v1.4PL0 Copyright (c) Steve Scherf et al.
# Submitted via: FreeRIP 2.53 
#
DISCID=990a310c
DTITLE=CABALLO DORADO - CABALLO DORADO V2
DYEAR=1900
DGENRE=Country
TTITLE0=No Rompas Mi Corazón
TTITLE1=Niegalo
TTITLE2=Payaso de Rodeo
TTITLE3=Olvidarte
TTITLE4=Carretara 54
TTITLE5=El Mismo Bar
TTITLE6=Vaquera Sexy
TTITLE7=Un Chico Loco
TTITLE8=Tocando Mi Violin
TTITLE9=Sere Tuyo Nadamas
TTITLE10=El Diablo Bajo a Gerogia
TTITLE11=Tristes Recuerdos
EXTD=
EXTT0=
EXTT1=
EXTT2=
EXTT3=
EXTT4=
EXTT5=
EXTT6=
EXTT7=
EXTT8=
EXTT9=
EXTT10=
EXTT11=
PLAYORDER=
